<svg width="229" height="159" viewBox="0 0 229 159" fill="none" xmlns="http://www.w3.org/2000/svg">
<path d="M20.354 55.5172V149C20.354 150.105 21.2494 151 22.354 151H114.5H206.646C207.751 151 208.646 150.105 208.646 149V55.5172M20.354 55.5172H114.5H208.646M20.354 55.5172H10C8.89543 55.5172 8 54.6218 8 53.5172V10C8 8.89543 8.89543 8 10 8H114.5H219C220.105 8 221 8.89543 221 10V53.5172C221 54.6218 220.105 55.5172 219 55.5172H208.646" stroke="#1A669A" stroke-width="15" stroke-linecap="round"/>
<path d="M97.6729 117.414H114.5H131.327" stroke="#1A669A" stroke-width="15" stroke-linecap="round"/>
<path d="M77 63C77 70.9565 80.9509 78.5871 87.9835 84.2132C95.0161 89.8393 104.554 93 114.5 93C124.446 93 133.984 89.8393 141.017 84.2132C148.049 78.5871 152 70.9565 152 63L133.675 63C133.675 67.0684 131.655 70.9702 128.059 73.847C124.463 76.7237 119.585 78.3399 114.5 78.3399C109.414 78.3399 104.537 76.7237 100.941 73.847C97.3453 70.9702 95.3251 67.0684 95.3251 63L77 63Z" fill="#1A669A"/>
</svg>
